<svg width="198" height="429" viewBox="0 0 198 429" fill="none" xmlns="http://www.w3.org/2000/svg">
<path d="M37.1804 156.634C25.6903 177.9 22.2515 192.951 21.1626 225.073L2.71795 223.617C1.36942 189.339 5.98039 172.241 21.1626 144.499C25.227 152.257 28.6776 154.981 37.1804 156.634Z" fill="#FECD82"/>
<path d="M158.527 154.207C166.675 151.804 170.012 149.195 173.089 141.587C187.449 165.904 192.067 183.745 193.96 221.675L175.515 223.617C173.463 191.878 168.535 177.212 158.527 154.207Z" fill="#FECD82"/>
<path d="M57.0812 408.549C54.2306 412.354 52.4004 414.307 47.8588 416.801C31.4652 419.299 29.2872 420.356 27.4726 422.14C26.431 425.856 26.7007 426.913 27.4726 428.45H78.9236C78.9236 428.45 79.4089 415.345 78.9236 412.918C78.4382 410.491 77.6403 410.146 76.4966 408.549H57.0812Z" fill="#FECD82"/>
<path d="M134.959 408.549C137.809 412.354 139.639 414.307 144.181 416.801C160.575 419.299 162.753 420.356 164.567 422.14C165.609 425.856 165.339 426.913 164.567 428.45H113.116C113.116 428.45 112.631 415.345 113.116 412.918C113.602 410.491 114.4 410.146 115.543 408.549H134.959Z" fill="#FECD82"/>
<path d="M41.0635 242.062L56.5958 408.549H77.4674L90.0875 280.893C95.0158 279.386 97.7795 279.582 102.708 280.893L114.357 408.549H135.228L152.217 242.062H41.0635Z" fill="#1E2355" fill-opacity="0.97"/>
<path d="M90.0875 281.378L82.3213 282.349L71.6428 408.549H77.4675L90.0875 281.378Z" fill="#0B0F39"/>
<path d="M152.217 242.062H144.936L128.918 408.549H135.228L152.217 242.062Z" fill="#0B0F39"/>
<path d="M77.4674 90.6211L78.4382 84.7964H116.298L117.269 90.6211L116.298 98.3873L97.8536 107.124L78.4382 98.3873L77.4674 90.6211Z" fill="#F4C070"/>
<path d="M129.404 35.7724C130.86 74.118 114.626 94.0188 96.3975 94.0188C78.1686 94.0188 65.3328 76.5449 63.3912 35.7724C63.3912 16.4713 78.1686 0.824631 96.3975 0.824631C114.626 0.824631 128.671 16.4852 129.404 35.7724Z" fill="#FECD82"/>
<path d="M31.3556 243.518C31.3556 242.062 26.8135 231.702 21.1625 225.073L2.71785 223.617C-1.3266 233.871 1.74697 245.459 2.2325 247.401C2.71803 249.342 18.2954 268.853 21.1625 259.535C23.1042 253.225 21.9914 248.883 21.1625 242.062C24.5632 244.71 26.9871 245.945 28.9287 245.945C30.8703 245.945 31.3557 244.974 31.3556 243.518Z" fill="#FECD82"/>
<path d="M165.872 241.931C165.832 240.476 170.086 229.995 175.552 223.212L193.949 221.247C198.275 231.386 195.523 243.054 195.091 245.008C194.66 246.963 179.627 266.896 176.504 257.661C174.388 251.407 175.381 247.036 176.021 240.194C172.695 242.936 170.306 244.237 168.365 244.29C166.424 244.344 165.912 243.387 165.872 241.931Z" fill="#FECD82"/>
<path d="M41.5488 158.575L37.6657 236.722C38.2979 241.527 37.6657 243.518 42.5195 246.43C47.3734 249.342 147.363 248.857 151.731 246.43C156.1 244.003 155.587 240.836 156.1 236.722L151.732 157.604C169.513 154.898 175.225 146.581 175.03 128.967C158.538 105.73 143.25 98.9395 117.269 90.1357C101.724 105.462 93.0111 106.333 77.4674 90.1357C48.8335 98.133 33.3647 104.575 17.7649 128.967C19.307 145.107 22.4795 155.036 41.5488 158.575Z" fill="white"/>
</svg>
