<svg width="80" height="103" viewBox="0 0 80 103" fill="none" xmlns="http://www.w3.org/2000/svg">
<g filter="url(#filter0_d_207_85)">
<path d="M39.8382 35.003L52.922 4L66.2903 9.97305C60.7725 42.5156 64.6017 48.2315 73.6855 54.3443L75.6766 90.7515C75.2064 94.0117 74.1565 94.9114 71.979 96.1557L44.6736 99C42.743 98.1356 41.689 96.8639 39.8382 93.0269C39.5315 83.0908 39.8382 35.003 39.8382 35.003Z" fill="#FFC300"/>
<path d="M39.8384 35.003L26.7546 4L13.3863 9.97305C18.9041 42.5156 15.0749 48.2315 5.99112 54.3443L4.00002 90.7515C4.47022 94.0117 5.52012 94.9114 7.69763 96.1557L35.003 99C36.9337 98.1356 37.9877 96.8639 39.8384 93.0269C40.1451 83.0908 39.8384 35.003 39.8384 35.003Z" fill="#FFC300"/>
<path d="M40.1205 49.1506L40.1205 91.7615" stroke="black" stroke-width="4" stroke-linecap="round"/>
<path d="M22.6247 5.97534L19.8027 7.3863L30.526 61.5671H34.4767L22.6247 5.97534Z" fill="black"/>
<path d="M34.4767 61.5671H30.526L5.97535 62.1314L5.41097 67.4931H38.7096V61.5671H34.4767Z" fill="black"/>
<path d="M38.7096 75.3944V80.4739H4.84656L5.12875 75.3944H38.7096Z" fill="black"/>
<path d="M34.4767 61.5671L22.6247 5.97534L19.8027 7.3863L30.526 61.5671M34.4767 61.5671H30.526M34.4767 61.5671H38.7096V67.4931H5.41097L5.97535 62.1314L30.526 61.5671M38.7096 75.3944V80.4739H4.84656L5.12875 75.3944H38.7096Z" stroke="black"/>
<path d="M56.7698 5.97534L59.5917 7.3863L48.8685 61.5671H44.9178L56.7698 5.97534Z" fill="black"/>
<path d="M44.9178 61.5671H48.8685L73.9835 62.1314L74.2657 67.7753L40.6849 67.4931V61.5671H44.9178Z" fill="black"/>
<path d="M40.6849 75.3944V80.4739H74.8301L74.5479 75.3944H40.6849Z" fill="black"/>
<path d="M44.9178 61.5671L56.7698 5.97534L59.5917 7.3863L48.8685 61.5671M44.9178 61.5671H48.8685M44.9178 61.5671H40.6849V67.4931L74.2657 67.7753L73.9835 62.1314L48.8685 61.5671M40.6849 75.3944V80.4739H74.8301L74.5479 75.3944H40.6849Z" stroke="black"/>
<path d="M39.7837 35.0411C39.8133 35.095 43.7899 42.3406 42.9673 46.753C42.1415 51.1818 37.1531 50.7478 36.7651 46.4952C36.3775 42.2466 39.7772 35.0548 39.7837 35.0411ZM40.0122 44.1299C38.9218 44.1125 38.3051 44.9874 38.2876 46.0782C38.2701 47.169 38.8583 48.0626 39.9487 48.0801C41.0389 48.0975 41.6557 47.2234 41.6733 46.1329C41.6908 45.0422 41.1024 44.1476 40.0122 44.1299Z" fill="#FE5D12"/>
</g>
<defs>
<filter id="filter0_d_207_85" x="0" y="0" width="79.6766" height="103" filterUnits="userSpaceOnUse" color-interpolation-filters="sRGB">
<feFlood flood-opacity="0" result="BackgroundImageFix"/>
<feColorMatrix in="SourceAlpha" type="matrix" values="0 0 0 0 0 0 0 0 0 0 0 0 0 0 0 0 0 0 127 0" result="hardAlpha"/>
<feOffset/>
<feGaussianBlur stdDeviation="2"/>
<feComposite in2="hardAlpha" operator="out"/>
<feColorMatrix type="matrix" values="0 0 0 0 0 0 0 0 0 0 0 0 0 0 0 0 0 0 0.25 0"/>
<feBlend mode="normal" in2="BackgroundImageFix" result="effect1_dropShadow_207_85"/>
<feBlend mode="normal" in="SourceGraphic" in2="effect1_dropShadow_207_85" result="shape"/>
</filter>
</defs>
</svg>
