<svg width="103" height="42" viewBox="0 0 103 42" fill="none" xmlns="http://www.w3.org/2000/svg">
<g filter="url(#filter0_d_210_150)">
<path d="M16.6888 21.0077C17.4419 27.9367 20.8125 33.6233 16.282 34.1157C11.9221 35.5981 5.31624 29.4655 4.56306 22.5364C3.80987 15.6074 8.83846 6.9782 13.6953 7.43449C18.2258 6.94203 15.9356 14.0786 16.6888 21.0077Z" fill="#F7901E"/>
<path d="M16.6557 34.281C13.9561 34.6861 11.996 34.097 9.2216 31.786C13.0669 31.7612 14.6518 24.6714 14.9438 21.2516C15.2358 17.8319 16.6557 34.281 16.6557 34.281Z" fill="#D88228"/>
<path d="M17.5933 7.97473L19.1756 34.1342" stroke="black" stroke-width="7" stroke-linecap="round"/>
<path d="M86.0865 21.0077C85.3333 27.9367 81.9628 33.6233 86.4933 34.1157C90.8531 35.5981 97.459 29.4655 98.2122 22.5364C98.9654 15.6074 93.9368 6.9782 89.08 7.43449C84.5495 6.94203 86.8397 14.0786 86.0865 21.0077Z" fill="#F7901E"/>
<path d="M86.1196 34.2811C88.8193 34.6862 90.7794 34.097 93.5538 31.786C89.7085 31.7612 88.1236 24.6714 87.8316 21.2517C87.5395 17.8319 86.1196 34.2811 86.1196 34.2811Z" fill="#D88228"/>
<path d="M85.1821 7.97473L83.5998 34.1342" stroke="black" stroke-width="7" stroke-linecap="round"/>
</g>
<defs>
<filter id="filter0_d_210_150" x="0.487793" y="0.474609" width="101.8" height="41.1597" filterUnits="userSpaceOnUse" color-interpolation-filters="sRGB">
<feFlood flood-opacity="0" result="BackgroundImageFix"/>
<feColorMatrix in="SourceAlpha" type="matrix" values="0 0 0 0 0 0 0 0 0 0 0 0 0 0 0 0 0 0 127 0" result="hardAlpha"/>
<feOffset/>
<feGaussianBlur stdDeviation="2"/>
<feComposite in2="hardAlpha" operator="out"/>
<feColorMatrix type="matrix" values="0 0 0 0 0 0 0 0 0 0 0 0 0 0 0 0 0 0 0.25 0"/>
<feBlend mode="normal" in2="BackgroundImageFix" result="effect1_dropShadow_210_150"/>
<feBlend mode="normal" in="SourceGraphic" in2="effect1_dropShadow_210_150" result="shape"/>
</filter>
</defs>
</svg>
