<svg width="89" height="52" viewBox="0 0 89 52" fill="none" xmlns="http://www.w3.org/2000/svg">
<g filter="url(#filter0_d_210_171)">
<path d="M80.691 37.6495C78.264 43.0102 61.139 41.5482 47.1993 41.5482C33.2596 41.5482 21.9592 43.4976 9.82458 37.6495C9.82458 24.4613 24.8716 6.94738 44.287 7.92205C67.5855 7.92205 80.691 24.4613 80.691 37.6495Z" fill="#F58020"/>
<path d="M9.33925 37.4917C6.98433 38.4637 5.77279 39.3863 4 42.3455C38.1609 49.639 55.8129 49.4265 84.5741 42.3455C83.8738 40.3676 83.0961 39.2898 80.2056 37.4917C53.6263 43.3349 37.9454 42.4547 9.33925 37.4917Z" fill="#F58020"/>
<path d="M38.9478 8.34369C41.3332 2.28327 48.8548 2.82733 50.4607 8.34369C52.0667 13.8601 38.9478 8.34369 38.9478 8.34369Z" fill="#F58020"/>
<path d="M23.6103 18.0142C20.1685 12.0337 25.3483 6.86608 30.8596 9.52416C36.3708 12.1822 23.6103 18.0142 23.6103 18.0142Z" fill="#F58020"/>
<path d="M57.2801 11.9461C61.5934 6.41667 68.3114 9.31759 67.8549 15.5247C67.3983 21.7319 57.2801 11.9461 57.2801 11.9461Z" fill="#F58020"/>
<path d="M31.1816 9.82463L39.4331 7.88309C39.4331 7.88309 40.4039 18.0762 39.4331 24.8716C38.4624 31.667 32.1523 31.1816 31.1816 24.8716C30.2108 18.5616 31.1816 9.82463 31.1816 9.82463Z" fill="#EE6C18"/>
<path d="M58.3093 9.82463L50.0577 7.88309C50.0577 7.88309 49.087 18.0762 50.0577 24.8716C51.0285 31.667 57.3385 31.1816 58.3093 24.8716C59.28 18.5616 58.3093 9.82463 58.3093 9.82463Z" fill="#EE6C18"/>
<path d="M76.8079 24.8716C79.2927 28.911 80.5091 32.9284 80.691 37.977C70.0381 43.1177 62.3512 40.4904 45.7432 41.3747C70.7885 37.292 78.5979 33.8629 76.8079 24.8716Z" fill="#EE6C18"/>
</g>
<defs>
<filter id="filter0_d_210_171" x="0" y="0" width="88.5741" height="51.7363" filterUnits="userSpaceOnUse" color-interpolation-filters="sRGB">
<feFlood flood-opacity="0" result="BackgroundImageFix"/>
<feColorMatrix in="SourceAlpha" type="matrix" values="0 0 0 0 0 0 0 0 0 0 0 0 0 0 0 0 0 0 127 0" result="hardAlpha"/>
<feOffset/>
<feGaussianBlur stdDeviation="2"/>
<feComposite in2="hardAlpha" operator="out"/>
<feColorMatrix type="matrix" values="0 0 0 0 0 0 0 0 0 0 0 0 0 0 0 0 0 0 0.25 0"/>
<feBlend mode="normal" in2="BackgroundImageFix" result="effect1_dropShadow_210_171"/>
<feBlend mode="normal" in="SourceGraphic" in2="effect1_dropShadow_210_171" result="shape"/>
</filter>
</defs>
</svg>
