<svg width="64" height="64" viewBox="0 0 64 64" fill="none" xmlns="http://www.w3.org/2000/svg">
<mask id="mask0_202_25324" style="mask-type:alpha" maskUnits="userSpaceOnUse" x="0" y="0" width="64" height="64">
<path d="M35.2129 6.4248C19.314 6.4248 6.4248 19.314 6.4248 35.2129H0C0 30.5887 0.911062 26.0095 2.68066 21.7373C4.45026 17.4652 7.04371 13.5832 10.3135 10.3135C13.5832 7.04371 17.4652 4.45026 21.7373 2.68066C26.0095 0.911063 30.5887 -2.0213e-07 35.2129 0V6.4248Z" fill="white"/>
<path d="M35.2128 6.42521C38.9932 6.42522 42.7368 7.16992 46.2294 8.61662C49.7219 10.0633 52.8952 12.1838 55.5682 14.8568C58.2413 17.5299 60.3618 20.7033 61.8085 24.1957C63.2551 27.6883 63.9998 31.432 63.9999 35.2123H57.5751C57.5749 22.8622 47.5629 12.8501 35.2128 12.85V6.42521Z" fill="white"/>
<path d="M35.2128 19.4012C26.4806 19.4012 19.4012 26.4805 19.4012 35.2127H12.8505C12.8505 32.2761 13.4288 29.3682 14.5526 26.6551C15.6764 23.942 17.3237 21.4767 19.4003 19.4002C21.4768 17.3237 23.942 15.6764 26.6552 14.5526C29.3682 13.4288 32.2762 12.8504 35.2128 12.8504V19.4012Z" fill="white"/>
<path d="M57.5751 35.2127C57.5751 38.1493 56.9967 41.0572 55.8729 43.7703C54.7491 46.4834 53.1018 48.9486 51.0253 51.0252C48.9487 53.1017 46.4835 54.749 43.7704 55.8728C41.0573 56.9966 38.1494 57.5749 35.2128 57.575V51.1502C44.0144 51.15 51.1493 44.0143 51.1493 35.2127H57.5751Z" fill="white"/>
<path d="M12.85 35.2127C12.85 47.3699 22.5517 57.2608 34.6351 57.5671L35.2123 57.575V63.9998C31.432 63.9997 27.6882 63.255 24.1957 61.8084C20.7032 60.3617 17.5298 58.2412 14.8568 55.5681C12.1838 52.895 10.0633 49.7218 8.61658 46.2293C7.16987 42.7366 6.42517 38.9931 6.42517 35.2127H12.85Z" fill="white"/>
</mask>
<g mask="url(#mask0_202_25324)">
<rect x="-14.8661" y="76.3163" width="95.1183" height="88.8191" transform="rotate(-88.5538 -14.8661 76.3163)" fill="url(#paint0_linear_202_25324)"/>
</g>
<path d="M34.6595 29.5435C34.7814 29.0262 35.5177 29.0262 35.6396 29.5435L35.7604 30.0562C36.3323 32.4823 38.2917 34.3363 40.7457 34.7733C41.2364 34.8607 41.2364 35.5646 40.7457 35.652C38.2917 36.089 36.3323 37.943 35.7604 40.3691L35.6396 40.8818C35.5177 41.3991 34.7814 41.3991 34.6595 40.8818L34.5387 40.3691C33.9668 37.943 32.0074 36.089 29.5534 35.652C29.0627 35.5646 29.0627 34.8607 29.5534 34.7733C32.0074 34.3363 33.9668 32.4823 34.5387 30.0562L34.6595 29.5435Z" fill="url(#paint1_linear_202_25324)"/>
<defs>
<linearGradient id="paint0_linear_202_25324" x1="32.693" y1="76.3163" x2="32.693" y2="165.135" gradientUnits="userSpaceOnUse">
<stop stop-color="#EDF4F1"/>
<stop offset="0.778846" stop-color="#24664F"/>
</linearGradient>
<linearGradient id="paint1_linear_202_25324" x1="35.1496" y1="27.4646" x2="35.1496" y2="42.9607" gradientUnits="userSpaceOnUse">
<stop stop-color="#32705A"/>
<stop offset="1" stop-color="#B2B2B2"/>
</linearGradient>
</defs>
</svg>
