<svg width="102" height="67" viewBox="0 0 102 67" fill="none" xmlns="http://www.w3.org/2000/svg">
<g filter="url(#filter0_d_210_144)">
<path d="M8.77617 5.94153C18.7291 9.29022 24.794 8.36846 34.9871 5.94153L34.0164 22.4447C40.6077 31.0747 45.5015 42.4946 41.7825 43.8017C38.0636 45.1087 35.4725 42.8309 32.5602 39.9186C32.5602 39.9186 34.9873 44.287 34.0164 54.9655C33.0455 65.644 8.7763 63.7025 7.32001 46.714C5.86371 29.7255 8.77617 22.4447 8.77617 22.4447C8.07015 15.8042 7.69606 12.0872 8.77617 5.94153Z" fill="#D67F1E"/>
<path d="M5.86394 4C15.8169 7.34869 21.6023 8.17669 32.5602 6.42693L31.1042 20.5031C37.6955 29.1332 42.5892 40.5531 38.8703 41.8601C35.1514 43.1672 33.398 40.6926 30.1332 38.4624C30.1332 38.4624 32.0751 42.3455 31.1042 53.024C30.1332 63.7025 5.86407 61.761 4.40778 44.7724C2.95148 27.7839 5.86394 20.5031 5.86394 20.5031C5.15792 13.8627 4.78383 10.1456 5.86394 4Z" fill="#F7901E"/>
<path d="M91.8183 5.94153C81.8654 9.29022 76.7363 7.69128 65.7785 5.94153L67.2346 20.9885C60.6433 29.6185 56.2349 42.4946 59.9538 43.8017C63.6727 45.1087 70.1469 40.8893 68.6908 39.9186C68.6908 39.9186 66.7491 45.2578 67.72 55.9363C68.6909 66.6148 91.8182 63.7025 93.2745 46.714C94.7308 29.7255 91.8183 22.4447 91.8183 22.4447C92.5243 15.8042 92.8984 12.0872 91.8183 5.94153Z" fill="#D67F1E"/>
<path d="M95.7014 4C85.7484 7.34869 79.963 8.17669 69.0051 6.42693L70.4611 20.5031C63.8698 29.1332 58.9761 40.5531 62.695 41.8601C66.4139 43.1672 68.1673 40.6926 71.4321 38.4624C71.4321 38.4624 69.4902 42.3455 70.4611 53.024C71.4321 63.7025 95.7012 61.761 97.1575 44.7724C98.6138 27.7839 95.7014 20.5031 95.7014 20.5031C96.4074 13.8627 96.7815 10.1456 95.7014 4Z" fill="#F7901E"/>
</g>
<defs>
<filter id="filter0_d_210_144" x="0" y="0" width="101.565" height="66.1999" filterUnits="userSpaceOnUse" color-interpolation-filters="sRGB">
<feFlood flood-opacity="0" result="BackgroundImageFix"/>
<feColorMatrix in="SourceAlpha" type="matrix" values="0 0 0 0 0 0 0 0 0 0 0 0 0 0 0 0 0 0 127 0" result="hardAlpha"/>
<feOffset/>
<feGaussianBlur stdDeviation="2"/>
<feComposite in2="hardAlpha" operator="out"/>
<feColorMatrix type="matrix" values="0 0 0 0 0 0 0 0 0 0 0 0 0 0 0 0 0 0 0.25 0"/>
<feBlend mode="normal" in2="BackgroundImageFix" result="effect1_dropShadow_210_144"/>
<feBlend mode="normal" in="SourceGraphic" in2="effect1_dropShadow_210_144" result="shape"/>
</filter>
</defs>
</svg>
