<svg width="230" height="67" viewBox="0 0 230 67" fill="none" xmlns="http://www.w3.org/2000/svg">
<g filter="url(#filter0_d_207_103)">
<path d="M8.77617 5.99689C18.7291 9.34557 24.794 8.42382 34.9871 5.99689L34.0164 22.5C40.6077 31.13 45.5015 42.55 41.7825 43.857C38.0636 45.164 35.4725 42.8862 32.5602 39.9739C32.5602 39.9739 34.9873 44.3424 34.0164 55.0209C33.0455 65.6994 8.7763 63.7579 7.32001 46.7693C5.86371 29.7808 8.77617 22.5 8.77617 22.5C8.07015 15.8596 7.69606 12.1425 8.77617 5.99689Z" fill="#D67F1E"/>
<path d="M5.86394 4.05536C15.8169 7.40405 21.6023 8.23205 32.5602 6.48229L31.1042 20.5585C37.6955 29.1885 42.5892 40.6085 38.8703 41.9155C35.1514 43.2225 33.398 40.7479 30.1332 38.5178C30.1332 38.5178 32.0751 42.4009 31.1042 53.0794C30.1332 63.7579 5.86407 61.8163 4.40778 44.8278C2.95148 27.8393 5.86394 20.5585 5.86394 20.5585C5.15792 13.918 4.78383 10.201 5.86394 4.05536Z" fill="#F7901E"/>
<path d="M220.223 5.94153C210.27 9.29022 205.141 7.69128 194.183 5.94153L195.639 20.9885C189.048 29.6185 184.639 42.4946 188.358 43.8017C192.077 45.1087 198.551 40.8893 197.095 39.9186C197.095 39.9186 195.154 45.2578 196.124 55.9363C197.095 66.6148 220.223 63.7025 221.679 46.714C223.135 29.7255 220.223 22.4447 220.223 22.4447C220.929 15.8042 221.303 12.0872 220.223 5.94153Z" fill="#D67F1E"/>
<path d="M224.106 4C214.153 7.34869 208.367 8.17669 197.41 6.42693L198.866 20.5031C192.274 29.1332 187.381 40.5531 191.099 41.8601C194.818 43.1672 196.572 40.6926 199.836 38.4624C199.836 38.4624 197.895 42.3455 198.866 53.024C199.836 63.7025 224.106 61.761 225.562 44.7724C227.018 27.7839 224.106 20.5031 224.106 20.5031C224.812 13.8627 225.186 10.1456 224.106 4Z" fill="#F7901E"/>
</g>
<defs>
<filter id="filter0_d_207_103" x="0" y="0" width="229.97" height="66.1999" filterUnits="userSpaceOnUse" color-interpolation-filters="sRGB">
<feFlood flood-opacity="0" result="BackgroundImageFix"/>
<feColorMatrix in="SourceAlpha" type="matrix" values="0 0 0 0 0 0 0 0 0 0 0 0 0 0 0 0 0 0 127 0" result="hardAlpha"/>
<feOffset/>
<feGaussianBlur stdDeviation="2"/>
<feComposite in2="hardAlpha" operator="out"/>
<feColorMatrix type="matrix" values="0 0 0 0 0 0 0 0 0 0 0 0 0 0 0 0 0 0 0.25 0"/>
<feBlend mode="normal" in2="BackgroundImageFix" result="effect1_dropShadow_207_103"/>
<feBlend mode="normal" in="SourceGraphic" in2="effect1_dropShadow_207_103" result="shape"/>
</filter>
</defs>
</svg>
